<?xml version="1.0" encoding="UTF-8"?>
<svg version="1.1" xmlns="http://www.w3.org/2000/svg" width="500" height="500">
<path d="M0 0 C0.27972656 0.7734375 0.55945313 1.546875 0.84765625 2.34375 C4.11877767 10.84235484 7.75886206 17.85298663 15.875 22.5 C21.79797134 25.07271921 27.39014252 24.77667804 33.375 22.5625 C34.57125 22.046875 35.7675 21.53125 37 21 C37.99 20.67 38.98 20.34 40 20 C40 19.34 40 18.68 40 18 C41.32 17.34 42.64 16.68 44 16 C43.95746653 25.61256457 40.26720419 33.09919371 35 41 C34.34 41 33.68 41 33 41 C33 41.66 33 42.32 33 43 C32.34 43 31.68 43 31 43 C31 43.66 31 44.32 31 45 C30.34 45 29.68 45 29 45 C29 45.66 29 46.32 29 47 C26.98828125 48.4375 26.98828125 48.4375 24.3125 50 C23.44238281 50.515625 22.57226562 51.03125 21.67578125 51.5625 C18.03109648 53.52052043 15.17370766 55 11 55 C11.33 121 11.66 187 12 255 C14.31 254.01 16.62 253.02 19 252 C20.32276056 251.62691369 21.65232077 251.26953585 23 251 C23 250.34 23 249.68 23 249 C24.7578125 247.66796875 24.7578125 247.66796875 27.125 246.1875 C30.05996517 244.3063491 32.80839827 242.4148628 35.4375 240.125 C38 238 38 238 40 238 C40 237.34 40 236.68 40 236 C41.50390625 234.5546875 41.50390625 234.5546875 43.5625 232.875 C47.31756613 229.70687138 50.45265657 226.30569764 53.5546875 222.50390625 C54.03164063 222.00761719 54.50859375 221.51132812 55 221 C55.66 221 56.32 221 57 221 C56.42630656 233.90810231 43.76249167 251.74910716 35 261 C34.34 261 33.68 261 33 261 C32.5978125 261.86625 32.5978125 261.86625 32.1875 262.75 C30.97070811 265.05550043 29.69666121 267.02056192 28 269 C27.34 269 26.68 269 26 269 C25.7834375 269.56203125 25.566875 270.1240625 25.34375 270.703125 C23.54930872 273.77036765 21.26107786 275.52660572 18.5 277.75 C17.5203125 278.54921875 16.540625 279.3484375 15.53125 280.171875 C13 282 13 282 11 282 C11 282.66 11 283.32 11 284 C8 286 8 286 5 286 C5 286.66 5 287.32 5 288 C-27.88382781 305.10747864 -64.94334427 311.53824053 -101.00732422 300.65234375 C-116.24436663 295.66418186 -131.40559832 287.14024308 -143 276 C-143 275.34 -143 274.68 -143 274 C-143.66 274 -144.32 274 -145 274 C-146.5078125 272.5390625 -146.5078125 272.5390625 -148.125 270.625 C-148.66382813 269.99851562 -149.20265625 269.37203125 -149.7578125 268.7265625 C-151 267 -151 267 -151 265 C-151.66 265 -152.32 265 -153 265 C-153.495 263.02 -153.495 263.02 -154 261 C-154.66 261 -155.32 261 -156 261 C-165.62571976 249.94343001 -171.43951193 235.71641047 -176 222 C-176.5340738 220.66360719 -177.07448538 219.32970455 -177.625 218 C-179.80384081 212.21437752 -180.93687858 206.07535314 -182 200 C-182.17354004 199.02708008 -182.34708008 198.05416016 -182.52587891 197.05175781 C-183.97481912 188.10006839 -184.31018491 179.38385333 -184.26074219 170.33203125 C-184.25001078 168.0023396 -184.26071242 165.67341867 -184.2734375 163.34375 C-184.30216195 134.76141158 -176.37655628 107.10802974 -162.671875 82.15234375 C-160.94112047 79.09857595 -160.94112047 79.09857595 -160 76 C-159.34 76 -158.68 76 -158 76 C-157.91621094 75.46503906 -157.83242188 74.93007812 -157.74609375 74.37890625 C-156.73043201 71.1404874 -154.97790649 68.73267728 -153.0625 65.9375 C-152.35222656 64.89464844 -151.64195312 63.85179687 -150.91015625 62.77734375 C-150.27980469 61.86082031 -149.64945312 60.94429687 -149 60 C-148.34 59.01 -147.68 58.02 -147 57 C-146.34 57 -145.68 57 -145 57 C-144.75894531 56.44183594 -144.51789063 55.88367188 -144.26953125 55.30859375 C-142.73113421 52.51107791 -140.84438036 50.41513085 -138.6875 48.0625 C-137.88183594 47.18335938 -137.07617188 46.30421875 -136.24609375 45.3984375 C-133.88282943 42.87488221 -131.47894686 40.41008723 -129 38 C-128.113125 37.071875 -127.22625 36.14375 -126.3125 35.1875 C-124 33 -124 33 -122 33 C-122 32.34 -122 31.68 -122 31 C-119.76527691 29.18146016 -117.52848477 27.48467204 -115.1875 25.8125 C-114.16124512 25.07157104 -114.16124512 25.07157104 -113.11425781 24.31567383 C-88.94864477 7 -88.94864477 7 -83 7 C-84.39750048 10.15835107 -86.05198234 12.32272825 -88.5 14.75 C-89.1084375 15.36359375 -89.716875 15.9771875 -90.34375 16.609375 C-92 18 -92 18 -94 18 C-94.2371875 18.56074219 -94.474375 19.12148437 -94.71875 19.69921875 C-96.29086374 22.52231324 -98.24861516 24.49343112 -100.5 26.8125 C-107.36354651 34.2147551 -113.75573049 42.79639384 -118 52 C-118.66 52 -119.32 52 -120 52 C-120.12673096 52.57548584 -120.25346191 53.15097168 -120.3840332 53.74389648 C-121.00625934 56.0229261 -121.83527497 57.9693167 -122.85546875 60.09765625 C-130.59819068 76.56141029 -136.36005405 92.96551117 -139 111 C-139.10296387 111.66193359 -139.20592773 112.32386719 -139.31201172 113.00585938 C-142.35145084 133.07672122 -142.11101514 153.95610431 -139 174 C-138.85522217 174.99700928 -138.85522217 174.99700928 -138.70751953 176.01416016 C-136.06389266 193.84236304 -129.83772599 209.41216761 -121.04980469 225.08740234 C-119.98097509 227.03466073 -118.98110114 229.00731152 -118 231 C-117.34 231 -116.68 231 -116 231 C-114.484375 232.57421875 -114.484375 232.57421875 -112.75 234.6875 C-110.49924272 237.35349133 -108.29950455 239.71010091 -105.5625 241.875 C-104.716875 242.57625 -103.87125 243.2775 -103 244 C-103 244.66 -103 245.32 -103 246 C-102.15695312 246.40412109 -102.15695312 246.40412109 -101.296875 246.81640625 C-98.8595389 248.07238047 -96.57400653 249.48314559 -94.25 250.9375 C-89.93568596 253.55553329 -85.78029059 255.4065698 -81 257 C-81 257.66 -81 258.32 -81 259 C-80.01902344 259.12375 -79.03804688 259.2475 -78.02734375 259.375 C-73.06983866 260.08303693 -68.25796083 261.32674463 -63.40429688 262.5390625 C-42.06430964 267.73353714 -19.90142129 266.0646611 1 260 C1.66 260 2.32 260 3 260 C3 193.01 3 126.02 3 57 C0.36 57 -2.28 57 -5 57 C-14.62021429 55.98013551 -21.34790993 51.47605215 -27.45703125 44.13671875 C-29.77577209 40.92570296 -31.38685756 37.61343906 -33 34 C-34.98 34.99 -36.96 35.98 -39 37 C-39.00358253 38.14658002 -39.00358253 38.14658002 -39.00723743 39.31632328 C-39.06654634 57.9731998 -39.14219707 76.62994583 -39.23571491 95.28668308 C-39.28055253 104.3091928 -39.31999448 113.33166411 -39.34643555 122.35424805 C-39.36951359 130.22447094 -39.40301974 138.09457104 -39.44870156 145.96469635 C-39.47250247 150.12630392 -39.49131677 154.28779088 -39.49761391 158.4494648 C-39.50372488 162.37870643 -39.52393706 166.30763997 -39.55427551 170.23676682 C-39.56296063 171.66723287 -39.56679849 173.09773936 -39.56500816 174.52823067 C-39.54869933 193.59778593 -42.85960497 209.98666357 -56.09375 224.2578125 C-58 226 -58 226 -60 226 C-60 226.66 -60 227.32 -60 228 C-69.04382112 234.98059196 -78.89200516 238.85006552 -90 241 C-90 237.27392897 -88.65846588 236.42649768 -86.30859375 233.73046875 C-79.45536488 224.66784072 -80.85840466 211.72636018 -80.88647461 201.046875 C-80.88675703 199.53832501 -80.88659767 198.02977488 -80.8860321 196.52122498 C-80.88574629 192.44537025 -80.89160806 188.36954521 -80.89860606 184.29369736 C-80.90487561 180.02693585 -80.90544624 175.7601736 -80.90663147 171.4934082 C-80.90973419 163.42236915 -80.91793326 155.3513437 -80.92798096 147.28031063 C-80.93917504 138.08804069 -80.94466084 128.89577009 -80.94967639 119.70349503 C-80.96011679 100.80232231 -80.97769566 81.90116225 -81 63 C-82.07378906 63.53689453 -83.14757812 64.07378906 -84.25390625 64.62695312 C-92.50260417 68.75130208 -100.75130208 72.87565104 -109 77 C-111.1519437 73.77208445 -111.20086443 72.71599191 -111 69 C-110.41734375 68.72027344 -109.8346875 68.44054687 -109.234375 68.15234375 C-103.32816369 65.26424357 -97.65471441 62.09471336 -91.99609375 58.75 C-89.23067845 57.13473787 -86.44232317 55.58493014 -83.625 54.0625 C-79.28525269 51.71311575 -74.97725859 49.3140859 -70.6875 46.875 C-69.55699219 46.23304688 -68.42648437 45.59109375 -67.26171875 44.9296875 C-63.95482462 43.02643833 -63.95482462 43.02643833 -60.76953125 40.7578125 C-58 39 -58 39 -55 39 C-55 38.34 -55 37.68 -55 37 C-54.48953125 36.731875 -53.9790625 36.46375 -53.453125 36.1875 C-47.64632062 33.05759126 -42.22089552 29.52186291 -36.796875 25.76953125 C-34.23869084 24.15101529 -31.84344987 23.01181154 -29 22 C-29 21.34 -29 20.68 -29 20 C-26.96927857 18.41682887 -24.93621503 16.94929951 -22.8125 15.5 C-17.09172245 11.5225712 -11.53420546 7.39657931 -6.08911133 3.04882812 C-2.21241099 0 -2.21241099 0 0 0 Z " fill="#0A0A0A" transform="translate(443,86)"/>
<path d="M0 0 C1.458685 0.00631439 1.458685 0.00631439 2.94683838 0.01275635 C22.08557402 0.10921742 40.8113773 1.88037192 59.75 4.5 C61.15897896 4.68286835 62.56816283 4.86416432 63.97753906 5.04394531 C64.66429718 5.13233673 65.3510553 5.22072815 66.05862427 5.3117981 C67.95319524 5.55526221 69.84793029 5.79744861 71.74267578 6.03955078 C74.75 6.5 74.75 6.5 77.75 7.5 C90.64758016 9.45520118 103.79124798 9.7086583 116.8125 9.75 C118.71757324 9.76365601 118.71757324 9.76365601 120.66113281 9.77758789 C132.19186319 9.74079408 143.00954631 8.79618148 153.75 4.5 C156.75 4.3125 156.75 4.3125 158.75 4.5 C154.76100841 18.05054429 143.74978273 29.96955625 132.75 38.5 C132.09 38.5 131.43 38.5 130.75 38.5 C130.75 39.16 130.75 39.82 130.75 40.5 C128.9835343 41.5076952 127.21166177 42.50591714 125.4375 43.5 C124.45136719 44.056875 123.46523437 44.61375 122.44921875 45.1875 C119.75 46.5 119.75 46.5 116.75 46.5 C117.08 106.23 117.41 165.96 117.75 227.5 C128.28294097 216.32478077 128.28294097 216.32478077 137.26171875 204.4140625 C137.75285156 203.78242188 138.24398437 203.15078125 138.75 202.5 C139.41 202.5 140.07 202.5 140.75 202.5 C140.75 201.84 140.75 201.18 140.75 200.5 C141.41 200.5 142.07 200.5 142.75 200.5 C141.19814019 211.98376257 139.00692531 222.29530461 134.015625 232.7890625 C132.40482372 236.23935906 131.01882332 239.75882658 129.64453125 243.30859375 C128.77726704 245.4332017 127.80363624 247.46235107 126.75 249.5 C126.09 249.5 125.43 249.5 124.75 249.5 C124.62923096 250.09240479 124.50846191 250.68480957 124.3840332 251.29516602 C123.37201146 254.81444532 121.08282565 257.52489049 118.9375 260.4375 C118.49857422 261.04529297 118.05964844 261.65308594 117.60742188 262.27929688 C112.83838727 268.84823458 107.95515311 274.2696429 101.75 279.5 C100.945625 280.21542969 100.14125 280.93085938 99.3125 281.66796875 C76.93341253 301.01655479 49.59536674 306.21092616 20.75 304.5 C14.6542319 303.91783222 8.7212305 302.83805584 2.75 301.5 C1.83863281 301.30664062 0.92726563 301.11328125 -0.01171875 300.9140625 C-8.24244638 298.81896819 -15.76467143 294.40983043 -23.25 290.5 C-23.25 289.84 -23.25 289.18 -23.25 288.5 C-23.80300781 288.4175 -24.35601562 288.335 -24.92578125 288.25 C-36.84700192 284.40315232 -47.72198814 269.65468512 -54.25 259.5 C-54.76304688 258.73171875 -55.27609375 257.9634375 -55.8046875 257.171875 C-67.88732718 238.26536109 -71.67150051 216.13847125 -71.5625 194.0625 C-71.56100952 193.31632416 -71.55951904 192.57014832 -71.5579834 191.80136108 C-71.49466489 174.12628233 -69.41127116 157.43739596 -64.25 140.5 C-64.02699219 139.71109375 -63.80398437 138.9221875 -63.57421875 138.109375 C-58.5188014 121.36136661 -48.85649963 105.24536703 -38.25 91.5 C-37.53199219 90.55382812 -36.81398437 89.60765625 -36.07421875 88.6328125 C-30.65149586 81.63383195 -30.65149586 81.63383195 -27.25 80.5 C-26.755 79.015 -26.755 79.015 -26.25 77.5 C-25.59 77.5 -24.93 77.5 -24.25 77.5 C-24.0025 76.91734375 -23.755 76.3346875 -23.5 75.734375 C-22.06474554 73.16885764 -20.47336987 71.66275202 -18.25 69.75 C-17.54875 69.13640625 -16.8475 68.5228125 -16.125 67.890625 C-14.25 66.5 -14.25 66.5 -12.25 66.5 C-12.25 65.84 -12.25 65.18 -12.25 64.5 C-6.83823529 60.5 -6.83823529 60.5 -4.25 60.5 C-4.92583711 64.45847449 -6.84419759 67.448511 -8.875 70.875 C-19.05318375 88.38870858 -27.24600556 106.56492626 -31.25 126.5 C-31.42732666 127.30308594 -31.60465332 128.10617188 -31.78735352 128.93359375 C-33.56727453 137.94488948 -33.58804397 146.89489927 -33.56567383 156.04345703 C-33.56252203 158.73121058 -33.5860196 161.41785104 -33.61132812 164.10546875 C-33.65024008 174.93805921 -32.71746151 184.93692233 -30.25 195.5 C-30.03714355 196.42224365 -29.82428711 197.3444873 -29.60498047 198.29467773 C-27.25792448 207.83606242 -21.94434098 216.93753398 -16.99609375 225.36328125 C-15.25 228.5 -15.25 228.5 -15.25 230.5 C-14.59 230.5 -13.93 230.5 -13.25 230.5 C-11.734375 232.07421875 -11.734375 232.07421875 -10 234.1875 C-7.74924272 236.85349133 -5.54950455 239.21010091 -2.8125 241.375 C-1.966875 242.07625 -1.12125 242.7775 -0.25 243.5 C-0.25 244.16 -0.25 244.82 -0.25 245.5 C0.80380859 245.9021875 0.80380859 245.9021875 1.87890625 246.3125 C5.94650106 247.99487935 9.80534401 250.04469368 13.71484375 252.0625 C34.19829533 261.7638001 57.09131774 257.53360837 77.65161133 250.20581055 C87.09707303 246.64125029 95.57297267 242.09527216 104.2109375 236.890625 C106.75 235.5 106.75 235.5 108.75 235.5 C108.75 174.12 108.75 112.74 108.75 49.5 C105.12 50.49 101.49 51.48 97.75 52.5 C94.66374081 53.01437653 91.85332811 53.34714951 88.75 53.5 C87.70070312 53.55285156 86.65140625 53.60570312 85.5703125 53.66015625 C65.19051132 54.13943583 44.60280552 51.16354701 24.375 48.9375 C-21.33148383 41.8536382 -21.33148383 41.8536382 -64.25 53.5 C-65.2759827 54.81344482 -66.28321647 56.14238909 -67.25 57.5 C-67.91 57.5 -68.57 57.5 -69.25 57.5 C-69.91 58.82 -70.57 60.14 -71.25 61.5 C-71.58 61.5 -71.91 61.5 -72.25 61.5 C-72.68561093 45.78315759 -66.84251009 29.52953923 -56.97265625 17.23828125 C-53.48493642 13.71892677 -49.45474578 11.08499308 -45.25 8.5 C-44.63640625 8.10941406 -44.0228125 7.71882813 -43.390625 7.31640625 C-30.19409849 -0.18692852 -14.6887422 -0.15801075 0 0 Z " fill="#070707" transform="translate(90.25,86.5)"/>
<path d="M0 0 C0.0234587 14.36119243 0.04097578 28.72238184 0.05181217 43.08358955 C0.05701494 49.75316248 0.06406494 56.42271902 0.07543945 63.09228516 C0.08636134 69.53730266 0.09229644 75.98230778 0.09487724 82.42733383 C0.0967148 84.87750315 0.10030289 87.32767185 0.10573006 89.77783585 C0.20433103 136.16731872 0.20433103 136.16731872 -13 152 C-13.99 152.33 -14.98 152.66 -16 153 C-16 153.66 -16 154.32 -16 155 C-24.72345102 163.74442086 -36.89598105 169.79293786 -48 175 C-48.66 175 -49.32 175 -50 175 C-49.16719478 170.90147544 -47.27240105 167.65070278 -45.25390625 164.0234375 C-41.96307574 156.08853776 -41.71373718 147.88190321 -41.77294922 139.39990234 C-41.77265717 138.28653503 -41.77236511 137.17316772 -41.77206421 136.02606201 C-41.77344744 132.37927203 -41.78896109 128.73269139 -41.8046875 125.0859375 C-41.80842121 122.54432283 -41.81126649 120.00270672 -41.81326294 117.46109009 C-41.82009533 111.47608332 -41.83582667 105.49116515 -41.85596192 99.50619376 C-41.87840271 92.68627137 -41.88933481 85.86634524 -41.89935279 79.04639506 C-41.92019558 65.03088923 -41.95532017 51.01544869 -42 37 C-42.75925781 37.433125 -43.51851562 37.86625 -44.30078125 38.3125 C-45.29464844 38.869375 -46.28851563 39.42625 -47.3125 40 C-48.29863281 40.556875 -49.28476563 41.11375 -50.30078125 41.6875 C-53 43 -53 43 -56 43 C-56 39.7 -56 36.4 -56 33 C-54.67484375 32.31292969 -53.3496875 31.62585938 -51.984375 30.91796875 C-50.23948574 30.00799962 -48.49469944 29.09783302 -46.75 28.1875 C-45.87730469 27.73568359 -45.00460938 27.28386719 -44.10546875 26.81835938 C-43.26113281 26.37685547 -42.41679688 25.93535156 -41.546875 25.48046875 C-40.77182617 25.07723389 -39.99677734 24.67399902 -39.19824219 24.25854492 C-36.94501686 23.04037379 -36.94501686 23.04037379 -34.90332031 21.3449707 C-33 20 -33 20 -30 20 C-30 19.34 -30 18.68 -30 18 C-28.41015625 16.9140625 -28.41015625 16.9140625 -26.0625 15.625 C-20.00918759 12.14608482 -14.42135319 8.09505454 -8.80297852 3.96337891 C-7.74228149 3.19646729 -7.74228149 3.19646729 -6.66015625 2.4140625 C-6.02730713 1.9495166 -5.39445801 1.4849707 -4.74243164 1.00634766 C-3 0 -3 0 0 0 Z " fill="#070707" transform="translate(160,153)"/>
<path d="M0 0 C0.66 0 1.32 0 2 0 C1.67 2.97 1.34 5.94 1 9 C0.34 7.68 -0.32 6.36 -1 5 C-2.32 5.99 -3.64 6.98 -5 8 C-4 6 -3 4 -2 2 C-1.34 2 -0.68 2 0 2 C0 1.34 0 0.68 0 0 Z " fill="#5E5E5E" transform="translate(231,287)"/>
</svg>
